<svg version="1.1" xmlns="http://www.w3.org/2000/svg" xmlns:xlink="http://www.w3.org/1999/xlink" width="672" height="61" viewBox="0,0,672,61"><g id="1 &quot;in. Tick Group" fill="none" fill-rule="nonzero" stroke="none" stroke-width="none" stroke-linecap="butt" stroke-linejoin="miter" stroke-miterlimit="10" stroke-dasharray="" stroke-dashoffset="0" font-family="none" font-weight="none" font-size="none" text-anchor="none" style="mix-blend-mode: normal"><path d="M0,0v11.33856" id="1 &quot;in. Tick no. 0" fill="none" stroke="#000000" stroke-width="1"/><text x="4" y="12.33856" id="1 &quot;in. label no. 0" fill="#000000" stroke="none" stroke-width="1" font-family="monospace" font-weight="bold" font-size="18" text-anchor="start">0</text><path d="M96,0v11.33856" id="1 &quot;in. Tick no. 1" fill="none" stroke="#000000" stroke-width="1"/><text x="100" y="12.33856" id="1 &quot;in. label no. 1" fill="#000000" stroke="none" stroke-width="1" font-family="monospace" font-weight="bold" font-size="18" text-anchor="start">1</text><path d="M192,0v11.33856" id="1 &quot;in. Tick no. 2" fill="none" stroke="#000000" stroke-width="1"/><text x="196" y="12.33856" id="1 &quot;in. label no. 2" fill="#000000" stroke="none" stroke-width="1" font-family="monospace" font-weight="bold" font-size="18" text-anchor="start">2</text><path d="M288,0v11.33856" id="1 &quot;in. Tick no. 3" fill="none" stroke="#000000" stroke-width="1"/><text x="292" y="12.33856" id="1 &quot;in. label no. 3" fill="#000000" stroke="none" stroke-width="1" font-family="monospace" font-weight="bold" font-size="18" text-anchor="start">3</text><path d="M384,0v11.33856" id="1 &quot;in. Tick no. 4" fill="none" stroke="#000000" stroke-width="1"/><text x="388" y="12.33856" id="1 &quot;in. label no. 4" fill="#000000" stroke="none" stroke-width="1" font-family="monospace" font-weight="bold" font-size="18" text-anchor="start">4</text><path d="M480,0v11.33856" id="1 &quot;in. Tick no. 5" fill="none" stroke="#000000" stroke-width="1"/><text x="484" y="12.33856" id="1 &quot;in. label no. 5" fill="#000000" stroke="none" stroke-width="1" font-family="monospace" font-weight="bold" font-size="18" text-anchor="start">5</text><path d="M576,0v11.33856" id="1 &quot;in. Tick no. 6" fill="none" stroke="#000000" stroke-width="1"/><text x="580" y="12.33856" id="1 &quot;in. label no. 6" fill="#000000" stroke="none" stroke-width="1" font-family="monospace" font-weight="bold" font-size="18" text-anchor="start">6</text><path d="M672,0v11.33856" id="1 &quot;in. Tick no. 7" fill="none" stroke="#000000" stroke-width="1"/><text x="668" y="12.33856" id="1 &quot;in. label no. 7" fill="#000000" stroke="none" stroke-width="1" font-family="monospace" font-weight="bold" font-size="18" text-anchor="end">7</text></g><g id="1/2 &quot;in. Tick Group" fill="none" fill-rule="nonzero" stroke="#000000" stroke-width="1" stroke-linecap="butt" stroke-linejoin="miter" stroke-miterlimit="10" stroke-dasharray="" stroke-dashoffset="0" font-family="none" font-weight="none" font-size="none" text-anchor="none" style="mix-blend-mode: normal"><path d="M48,0v5.66928" id="1/2 &quot;in. Tick no. 1"/><path d="M144,0v5.66928" id="1/2 &quot;in. Tick no. 3"/><path d="M240,0v5.66928" id="1/2 &quot;in. Tick no. 5"/><path d="M336,0v5.66928" id="1/2 &quot;in. Tick no. 7"/><path d="M432,0v5.66928" id="1/2 &quot;in. Tick no. 9"/><path d="M528,0v5.66928" id="1/2 &quot;in. Tick no. 11"/><path d="M624,0v5.66928" id="1/2 &quot;in. Tick no. 13"/></g><g id="1/4 &quot;in. Tick Group" fill="none" fill-rule="nonzero" stroke="#000000" stroke-width="1" stroke-linecap="butt" stroke-linejoin="miter" stroke-miterlimit="10" stroke-dasharray="" stroke-dashoffset="0" font-family="none" font-weight="none" font-size="none" text-anchor="none" style="mix-blend-mode: normal"><path d="M24,0v2.83464" id="1/4 &quot;in. Tick no. 1"/><path d="M72,0v2.83464" id="1/4 &quot;in. Tick no. 3"/><path d="M120,0v2.83464" id="1/4 &quot;in. Tick no. 5"/><path d="M168,0v2.83464" id="1/4 &quot;in. Tick no. 7"/><path d="M216,0v2.83464" id="1/4 &quot;in. Tick no. 9"/><path d="M264,0v2.83464" id="1/4 &quot;in. Tick no. 11"/><path d="M312,0v2.83464" id="1/4 &quot;in. Tick no. 13"/><path d="M360,0v2.83464" id="1/4 &quot;in. Tick no. 15"/><path d="M408,0v2.83464" id="1/4 &quot;in. Tick no. 17"/><path d="M456,0v2.83464" id="1/4 &quot;in. Tick no. 19"/><path d="M504,0v2.83464" id="1/4 &quot;in. Tick no. 21"/><path d="M552,0v2.83464" id="1/4 &quot;in. Tick no. 23"/><path d="M600,0v2.83464" id="1/4 &quot;in. Tick no. 25"/><path d="M648,0v2.83464" id="1/4 &quot;in. Tick no. 27"/></g><g id="1/8 &quot;in. Tick Group" fill="none" fill-rule="nonzero" stroke="#000000" stroke-width="1" stroke-linecap="butt" stroke-linejoin="miter" stroke-miterlimit="10" stroke-dasharray="" stroke-dashoffset="0" font-family="none" font-weight="none" font-size="none" text-anchor="none" style="mix-blend-mode: normal"><path d="M12,0v1.41732" id="1/8 &quot;in. Tick no. 1"/><path d="M36,0v1.41732" id="1/8 &quot;in. Tick no. 3"/><path d="M60,0v1.41732" id="1/8 &quot;in. Tick no. 5"/><path d="M84,0v1.41732" id="1/8 &quot;in. Tick no. 7"/><path d="M108,0v1.41732" id="1/8 &quot;in. Tick no. 9"/><path d="M132,0v1.41732" id="1/8 &quot;in. Tick no. 11"/><path d="M156,0v1.41732" id="1/8 &quot;in. Tick no. 13"/><path d="M180,0v1.41732" id="1/8 &quot;in. Tick no. 15"/><path d="M204,0v1.41732" id="1/8 &quot;in. Tick no. 17"/><path d="M228,0v1.41732" id="1/8 &quot;in. Tick no. 19"/><path d="M252,0v1.41732" id="1/8 &quot;in. Tick no. 21"/><path d="M276,0v1.41732" id="1/8 &quot;in. Tick no. 23"/><path d="M300,0v1.41732" id="1/8 &quot;in. Tick no. 25"/><path d="M324,0v1.41732" id="1/8 &quot;in. Tick no. 27"/><path d="M348,0v1.41732" id="1/8 &quot;in. Tick no. 29"/><path d="M372,0v1.41732" id="1/8 &quot;in. Tick no. 31"/><path d="M396,0v1.41732" id="1/8 &quot;in. Tick no. 33"/><path d="M420,0v1.41732" id="1/8 &quot;in. Tick no. 35"/><path d="M444,0v1.41732" id="1/8 &quot;in. Tick no. 37"/><path d="M468,0v1.41732" id="1/8 &quot;in. Tick no. 39"/><path d="M492,0v1.41732" id="1/8 &quot;in. Tick no. 41"/><path d="M516,0v1.41732" id="1/8 &quot;in. Tick no. 43"/><path d="M540,0v1.41732" id="1/8 &quot;in. Tick no. 45"/><path d="M564,0v1.41732" id="1/8 &quot;in. Tick no. 47"/><path d="M588,0v1.41732" id="1/8 &quot;in. Tick no. 49"/><path d="M612,0v1.41732" id="1/8 &quot;in. Tick no. 51"/><path d="M636,0v1.41732" id="1/8 &quot;in. Tick no. 53"/><path d="M660,0v1.41732" id="1/8 &quot;in. Tick no. 55"/></g><g id="1/16 &quot;in. Tick Group" fill="none" fill-rule="nonzero" stroke="#000000" stroke-width="1" stroke-linecap="butt" stroke-linejoin="miter" stroke-miterlimit="10" stroke-dasharray="" stroke-dashoffset="0" font-family="none" font-weight="none" font-size="none" text-anchor="none" style="mix-blend-mode: normal"><path d="M6,0v0.70866" id="1/16 &quot;in. Tick no. 1"/><path d="M18,0v0.70866" id="1/16 &quot;in. Tick no. 3"/><path d="M30,0v0.70866" id="1/16 &quot;in. Tick no. 5"/><path d="M42,0v0.70866" id="1/16 &quot;in. Tick no. 7"/><path d="M54,0v0.70866" id="1/16 &quot;in. Tick no. 9"/><path d="M66,0v0.70866" id="1/16 &quot;in. Tick no. 11"/><path d="M78,0v0.70866" id="1/16 &quot;in. Tick no. 13"/><path d="M90,0v0.70866" id="1/16 &quot;in. Tick no. 15"/><path d="M102,0v0.70866" id="1/16 &quot;in. Tick no. 17"/><path d="M114,0v0.70866" id="1/16 &quot;in. Tick no. 19"/><path d="M126,0v0.70866" id="1/16 &quot;in. Tick no. 21"/><path d="M138,0v0.70866" id="1/16 &quot;in. Tick no. 23"/><path d="M150,0v0.70866" id="1/16 &quot;in. Tick no. 25"/><path d="M162,0v0.70866" id="1/16 &quot;in. Tick no. 27"/><path d="M174,0v0.70866" id="1/16 &quot;in. Tick no. 29"/><path d="M186,0v0.70866" id="1/16 &quot;in. Tick no. 31"/><path d="M198,0v0.70866" id="1/16 &quot;in. Tick no. 33"/><path d="M210,0v0.70866" id="1/16 &quot;in. Tick no. 35"/><path d="M222,0v0.70866" id="1/16 &quot;in. Tick no. 37"/><path d="M234,0v0.70866" id="1/16 &quot;in. Tick no. 39"/><path d="M246,0v0.70866" id="1/16 &quot;in. Tick no. 41"/><path d="M258,0v0.70866" id="1/16 &quot;in. Tick no. 43"/><path d="M270,0v0.70866" id="1/16 &quot;in. Tick no. 45"/><path d="M282,0v0.70866" id="1/16 &quot;in. Tick no. 47"/><path d="M294,0v0.70866" id="1/16 &quot;in. Tick no. 49"/><path d="M306,0v0.70866" id="1/16 &quot;in. Tick no. 51"/><path d="M318,0v0.70866" id="1/16 &quot;in. Tick no. 53"/><path d="M330,0v0.70866" id="1/16 &quot;in. Tick no. 55"/><path d="M342,0v0.70866" id="1/16 &quot;in. Tick no. 57"/><path d="M354,0v0.70866" id="1/16 &quot;in. Tick no. 59"/><path d="M366,0v0.70866" id="1/16 &quot;in. Tick no. 61"/><path d="M378,0v0.70866" id="1/16 &quot;in. Tick no. 63"/><path d="M390,0v0.70866" id="1/16 &quot;in. Tick no. 65"/><path d="M402,0v0.70866" id="1/16 &quot;in. Tick no. 67"/><path d="M414,0v0.70866" id="1/16 &quot;in. Tick no. 69"/><path d="M426,0v0.70866" id="1/16 &quot;in. Tick no. 71"/><path d="M438,0v0.70866" id="1/16 &quot;in. Tick no. 73"/><path d="M450,0v0.70866" id="1/16 &quot;in. Tick no. 75"/><path d="M462,0v0.70866" id="1/16 &quot;in. Tick no. 77"/><path d="M474,0v0.70866" id="1/16 &quot;in. Tick no. 79"/><path d="M486,0v0.70866" id="1/16 &quot;in. Tick no. 81"/><path d="M498,0v0.70866" id="1/16 &quot;in. Tick no. 83"/><path d="M510,0v0.70866" id="1/16 &quot;in. Tick no. 85"/><path d="M522,0v0.70866" id="1/16 &quot;in. Tick no. 87"/><path d="M534,0v0.70866" id="1/16 &quot;in. Tick no. 89"/><path d="M546,0v0.70866" id="1/16 &quot;in. Tick no. 91"/><path d="M558,0v0.70866" id="1/16 &quot;in. Tick no. 93"/><path d="M570,0v0.70866" id="1/16 &quot;in. Tick no. 95"/><path d="M582,0v0.70866" id="1/16 &quot;in. Tick no. 97"/><path d="M594,0v0.70866" id="1/16 &quot;in. Tick no. 99"/><path d="M606,0v0.70866" id="1/16 &quot;in. Tick no. 101"/><path d="M618,0v0.70866" id="1/16 &quot;in. Tick no. 103"/><path d="M630,0v0.70866" id="1/16 &quot;in. Tick no. 105"/><path d="M642,0v0.70866" id="1/16 &quot;in. Tick no. 107"/><path d="M654,0v0.70866" id="1/16 &quot;in. Tick no. 109"/><path d="M666,0v0.70866" id="1/16 &quot;in. Tick no. 111"/></g></svg>