<svg version="1.1" xmlns="http://www.w3.org/2000/svg" xmlns:xlink="http://www.w3.org/1999/xlink" width="604" height="106" viewBox="0,0,604,106"><g id="1 cm. Tick Group" fill="none" fill-rule="nonzero" stroke="none" stroke-width="none" stroke-linecap="butt" stroke-linejoin="miter" stroke-miterlimit="10" stroke-dasharray="" stroke-dashoffset="0" font-family="none" font-weight="none" font-size="none" text-anchor="none" style="mix-blend-mode: normal"><path d="M0,0v11.33858" id="1 cm. Tick no. 0" fill="none" stroke="#000000" stroke-width="1"/><text x="4" y="12.33858" id="1 cm. label no. 0" fill="#000000" stroke="none" stroke-width="1" font-family="monospace" font-weight="bold" font-size="7" text-anchor="start">0</text><path d="M37.79528,0v11.33858" id="1 cm. Tick no. 1" fill="none" stroke="#000000" stroke-width="1"/><text x="41.79528" y="12.33858" id="1 cm. label no. 1" fill="#000000" stroke="none" stroke-width="1" font-family="monospace" font-weight="bold" font-size="7" text-anchor="start">1</text><path d="M75.59055,0v11.33858" id="1 cm. Tick no. 2" fill="none" stroke="#000000" stroke-width="1"/><text x="79.59055" y="12.33858" id="1 cm. label no. 2" fill="#000000" stroke="none" stroke-width="1" font-family="monospace" font-weight="bold" font-size="7" text-anchor="start">2</text><path d="M113.38583,0v11.33858" id="1 cm. Tick no. 3" fill="none" stroke="#000000" stroke-width="1"/><text x="117.38583" y="12.33858" id="1 cm. label no. 3" fill="#000000" stroke="none" stroke-width="1" font-family="monospace" font-weight="bold" font-size="7" text-anchor="start">3</text><path d="M151.1811,0v11.33858" id="1 cm. Tick no. 4" fill="none" stroke="#000000" stroke-width="1"/><text x="155.1811" y="12.33858" id="1 cm. label no. 4" fill="#000000" stroke="none" stroke-width="1" font-family="monospace" font-weight="bold" font-size="7" text-anchor="start">4</text><path d="M188.97638,0v11.33858" id="1 cm. Tick no. 5" fill="none" stroke="#000000" stroke-width="1"/><text x="192.97638" y="12.33858" id="1 cm. label no. 5" fill="#000000" stroke="none" stroke-width="1" font-family="monospace" font-weight="bold" font-size="7" text-anchor="start">5</text><path d="M226.77165,0v11.33858" id="1 cm. Tick no. 6" fill="none" stroke="#000000" stroke-width="1"/><text x="230.77165" y="12.33858" id="1 cm. label no. 6" fill="#000000" stroke="none" stroke-width="1" font-family="monospace" font-weight="bold" font-size="7" text-anchor="start">6</text><path d="M264.56693,0v11.33858" id="1 cm. Tick no. 7" fill="none" stroke="#000000" stroke-width="1"/><text x="268.56693" y="12.33858" id="1 cm. label no. 7" fill="#000000" stroke="none" stroke-width="1" font-family="monospace" font-weight="bold" font-size="7" text-anchor="start">7</text><path d="M302.3622,0v11.33858" id="1 cm. Tick no. 8" fill="none" stroke="#000000" stroke-width="1"/><text x="306.3622" y="12.33858" id="1 cm. label no. 8" fill="#000000" stroke="none" stroke-width="1" font-family="monospace" font-weight="bold" font-size="7" text-anchor="start">8</text><path d="M340.15748,0v11.33858" id="1 cm. Tick no. 9" fill="none" stroke="#000000" stroke-width="1"/><text x="344.15748" y="12.33858" id="1 cm. label no. 9" fill="#000000" stroke="none" stroke-width="1" font-family="monospace" font-weight="bold" font-size="7" text-anchor="start">9</text><path d="M377.95276,0v11.33858" id="1 cm. Tick no. 10" fill="none" stroke="#000000" stroke-width="1"/><text x="381.95276" y="12.33858" id="1 cm. label no. 10" fill="#000000" stroke="none" stroke-width="1" font-family="monospace" font-weight="bold" font-size="7" text-anchor="start">10</text><path d="M415.74803,0v11.33858" id="1 cm. Tick no. 11" fill="none" stroke="#000000" stroke-width="1"/><text x="419.74803" y="12.33858" id="1 cm. label no. 11" fill="#000000" stroke="none" stroke-width="1" font-family="monospace" font-weight="bold" font-size="7" text-anchor="start">11</text><path d="M453.54331,0v11.33858" id="1 cm. Tick no. 12" fill="none" stroke="#000000" stroke-width="1"/><text x="457.54331" y="12.33858" id="1 cm. label no. 12" fill="#000000" stroke="none" stroke-width="1" font-family="monospace" font-weight="bold" font-size="7" text-anchor="start">12</text><path d="M491.33858,0v11.33858" id="1 cm. Tick no. 13" fill="none" stroke="#000000" stroke-width="1"/><text x="495.33858" y="12.33858" id="1 cm. label no. 13" fill="#000000" stroke="none" stroke-width="1" font-family="monospace" font-weight="bold" font-size="7" text-anchor="start">13</text><path d="M529.13386,0v11.33858" id="1 cm. Tick no. 14" fill="none" stroke="#000000" stroke-width="1"/><text x="533.13386" y="12.33858" id="1 cm. label no. 14" fill="#000000" stroke="none" stroke-width="1" font-family="monospace" font-weight="bold" font-size="7" text-anchor="start">14</text><path d="M566.92913,0v11.33858" id="1 cm. Tick no. 15" fill="none" stroke="#000000" stroke-width="1"/><text x="570.92913" y="12.33858" id="1 cm. label no. 15" fill="#000000" stroke="none" stroke-width="1" font-family="monospace" font-weight="bold" font-size="7" text-anchor="start">15</text><path d="M604.72441,0v11.33858" id="1 cm. Tick no. 16" fill="none" stroke="#000000" stroke-width="1"/><text x="600.72441" y="12.33858" id="1 cm. label no. 16" fill="#000000" stroke="none" stroke-width="1" font-family="monospace" font-weight="bold" font-size="7" text-anchor="end">16</text></g><g id="1/10th cm. Tick Group" fill="none" fill-rule="nonzero" stroke="#000000" stroke-width="1" stroke-linecap="butt" stroke-linejoin="miter" stroke-miterlimit="10" stroke-dasharray="" stroke-dashoffset="0" font-family="none" font-weight="none" font-size="none" text-anchor="none" style="mix-blend-mode: normal"><path d="M3.77953,0v5.66929" id="1/10th cm. Tick no. 1"/><path d="M7.55906,0v5.66929" id="1/10th cm. Tick no. 2"/><path d="M11.33858,0v5.66929" id="1/10th cm. Tick no. 3"/><path d="M15.11811,0v5.66929" id="1/10th cm. Tick no. 4"/><path d="M18.89764,0v5.66929" id="1/10th cm. Tick no. 5"/><path d="M22.67717,0v5.66929" id="1/10th cm. Tick no. 6"/><path d="M26.45669,0v5.66929" id="1/10th cm. Tick no. 7"/><path d="M30.23622,0v5.66929" id="1/10th cm. Tick no. 8"/><path d="M34.01575,0v5.66929" id="1/10th cm. Tick no. 9"/><path d="M41.5748,0v5.66929" id="1/10th cm. Tick no. 11"/><path d="M45.35433,0v5.66929" id="1/10th cm. Tick no. 12"/><path d="M49.13386,0v5.66929" id="1/10th cm. Tick no. 13"/><path d="M52.91339,0v5.66929" id="1/10th cm. Tick no. 14"/><path d="M56.69291,0v5.66929" id="1/10th cm. Tick no. 15"/><path d="M60.47244,0v5.66929" id="1/10th cm. Tick no. 16"/><path d="M64.25197,0v5.66929" id="1/10th cm. Tick no. 17"/><path d="M68.0315,0v5.66929" id="1/10th cm. Tick no. 18"/><path d="M71.81102,0v5.66929" id="1/10th cm. Tick no. 19"/><path d="M79.37008,0v5.66929" id="1/10th cm. Tick no. 21"/><path d="M83.14961,0v5.66929" id="1/10th cm. Tick no. 22"/><path d="M86.92913,0v5.66929" id="1/10th cm. Tick no. 23"/><path d="M90.70866,0v5.66929" id="1/10th cm. Tick no. 24"/><path d="M94.48819,0v5.66929" id="1/10th cm. Tick no. 25"/><path d="M98.26772,0v5.66929" id="1/10th cm. Tick no. 26"/><path d="M102.04724,0v5.66929" id="1/10th cm. Tick no. 27"/><path d="M105.82677,0v5.66929" id="1/10th cm. Tick no. 28"/><path d="M109.6063,0v5.66929" id="1/10th cm. Tick no. 29"/><path d="M117.16535,0v5.66929" id="1/10th cm. Tick no. 31"/><path d="M120.94488,0v5.66929" id="1/10th cm. Tick no. 32"/><path d="M124.72441,0v5.66929" id="1/10th cm. Tick no. 33"/><path d="M128.50394,0v5.66929" id="1/10th cm. Tick no. 34"/><path d="M132.28346,0v5.66929" id="1/10th cm. Tick no. 35"/><path d="M136.06299,0v5.66929" id="1/10th cm. Tick no. 36"/><path d="M139.84252,0v5.66929" id="1/10th cm. Tick no. 37"/><path d="M143.62205,0v5.66929" id="1/10th cm. Tick no. 38"/><path d="M147.40157,0v5.66929" id="1/10th cm. Tick no. 39"/><path d="M154.96063,0v5.66929" id="1/10th cm. Tick no. 41"/><path d="M158.74016,0v5.66929" id="1/10th cm. Tick no. 42"/><path d="M162.51969,0v5.66929" id="1/10th cm. Tick no. 43"/><path d="M166.29921,0v5.66929" id="1/10th cm. Tick no. 44"/><path d="M170.07874,0v5.66929" id="1/10th cm. Tick no. 45"/><path d="M173.85827,0v5.66929" id="1/10th cm. Tick no. 46"/><path d="M177.6378,0v5.66929" id="1/10th cm. Tick no. 47"/><path d="M181.41732,0v5.66929" id="1/10th cm. Tick no. 48"/><path d="M185.19685,0v5.66929" id="1/10th cm. Tick no. 49"/><path d="M192.75591,0v5.66929" id="1/10th cm. Tick no. 51"/><path d="M196.53543,0v5.66929" id="1/10th cm. Tick no. 52"/><path d="M200.31496,0v5.66929" id="1/10th cm. Tick no. 53"/><path d="M204.09449,0v5.66929" id="1/10th cm. Tick no. 54"/><path d="M207.87402,0v5.66929" id="1/10th cm. Tick no. 55"/><path d="M211.65354,0v5.66929" id="1/10th cm. Tick no. 56"/><path d="M215.43307,0v5.66929" id="1/10th cm. Tick no. 57"/><path d="M219.2126,0v5.66929" id="1/10th cm. Tick no. 58"/><path d="M222.99213,0v5.66929" id="1/10th cm. Tick no. 59"/><path d="M230.55118,0v5.66929" id="1/10th cm. Tick no. 61"/><path d="M234.33071,0v5.66929" id="1/10th cm. Tick no. 62"/><path d="M238.11024,0v5.66929" id="1/10th cm. Tick no. 63"/><path d="M241.88976,0v5.66929" id="1/10th cm. Tick no. 64"/><path d="M245.66929,0v5.66929" id="1/10th cm. Tick no. 65"/><path d="M249.44882,0v5.66929" id="1/10th cm. Tick no. 66"/><path d="M253.22835,0v5.66929" id="1/10th cm. Tick no. 67"/><path d="M257.00787,0v5.66929" id="1/10th cm. Tick no. 68"/><path d="M260.7874,0v5.66929" id="1/10th cm. Tick no. 69"/><path d="M268.34646,0v5.66929" id="1/10th cm. Tick no. 71"/><path d="M272.12598,0v5.66929" id="1/10th cm. Tick no. 72"/><path d="M275.90551,0v5.66929" id="1/10th cm. Tick no. 73"/><path d="M279.68504,0v5.66929" id="1/10th cm. Tick no. 74"/><path d="M283.46457,0v5.66929" id="1/10th cm. Tick no. 75"/><path d="M287.24409,0v5.66929" id="1/10th cm. Tick no. 76"/><path d="M291.02362,0v5.66929" id="1/10th cm. Tick no. 77"/><path d="M294.80315,0v5.66929" id="1/10th cm. Tick no. 78"/><path d="M298.58268,0v5.66929" id="1/10th cm. Tick no. 79"/><path d="M306.14173,0v5.66929" id="1/10th cm. Tick no. 81"/><path d="M309.92126,0v5.66929" id="1/10th cm. Tick no. 82"/><path d="M313.70079,0v5.66929" id="1/10th cm. Tick no. 83"/><path d="M317.48031,0v5.66929" id="1/10th cm. Tick no. 84"/><path d="M321.25984,0v5.66929" id="1/10th cm. Tick no. 85"/><path d="M325.03937,0v5.66929" id="1/10th cm. Tick no. 86"/><path d="M328.8189,0v5.66929" id="1/10th cm. Tick no. 87"/><path d="M332.59843,0v5.66929" id="1/10th cm. Tick no. 88"/><path d="M336.37795,0v5.66929" id="1/10th cm. Tick no. 89"/><path d="M343.93701,0v5.66929" id="1/10th cm. Tick no. 91"/><path d="M347.71654,0v5.66929" id="1/10th cm. Tick no. 92"/><path d="M351.49606,0v5.66929" id="1/10th cm. Tick no. 93"/><path d="M355.27559,0v5.66929" id="1/10th cm. Tick no. 94"/><path d="M359.05512,0v5.66929" id="1/10th cm. Tick no. 95"/><path d="M362.83465,0v5.66929" id="1/10th cm. Tick no. 96"/><path d="M366.61417,0v5.66929" id="1/10th cm. Tick no. 97"/><path d="M370.3937,0v5.66929" id="1/10th cm. Tick no. 98"/><path d="M374.17323,0v5.66929" id="1/10th cm. Tick no. 99"/><path d="M381.73228,0v5.66929" id="1/10th cm. Tick no. 101"/><path d="M385.51181,0v5.66929" id="1/10th cm. Tick no. 102"/><path d="M389.29134,0v5.66929" id="1/10th cm. Tick no. 103"/><path d="M393.07087,0v5.66929" id="1/10th cm. Tick no. 104"/><path d="M396.85039,0v5.66929" id="1/10th cm. Tick no. 105"/><path d="M400.62992,0v5.66929" id="1/10th cm. Tick no. 106"/><path d="M404.40945,0v5.66929" id="1/10th cm. Tick no. 107"/><path d="M408.18898,0v5.66929" id="1/10th cm. Tick no. 108"/><path d="M411.9685,0v5.66929" id="1/10th cm. Tick no. 109"/><path d="M419.52756,0v5.66929" id="1/10th cm. Tick no. 111"/><path d="M423.30709,0v5.66929" id="1/10th cm. Tick no. 112"/><path d="M427.08661,0v5.66929" id="1/10th cm. Tick no. 113"/><path d="M430.86614,0v5.66929" id="1/10th cm. Tick no. 114"/><path d="M434.64567,0v5.66929" id="1/10th cm. Tick no. 115"/><path d="M438.4252,0v5.66929" id="1/10th cm. Tick no. 116"/><path d="M442.20472,0v5.66929" id="1/10th cm. Tick no. 117"/><path d="M445.98425,0v5.66929" id="1/10th cm. Tick no. 118"/><path d="M449.76378,0v5.66929" id="1/10th cm. Tick no. 119"/><path d="M457.32283,0v5.66929" id="1/10th cm. Tick no. 121"/><path d="M461.10236,0v5.66929" id="1/10th cm. Tick no. 122"/><path d="M464.88189,0v5.66929" id="1/10th cm. Tick no. 123"/><path d="M468.66142,0v5.66929" id="1/10th cm. Tick no. 124"/><path d="M472.44094,0v5.66929" id="1/10th cm. Tick no. 125"/><path d="M476.22047,0v5.66929" id="1/10th cm. Tick no. 126"/><path d="M480,0v5.66929" id="1/10th cm. Tick no. 127"/><path d="M483.77953,0v5.66929" id="1/10th cm. Tick no. 128"/><path d="M487.55906,0v5.66929" id="1/10th cm. Tick no. 129"/><path d="M495.11811,0v5.66929" id="1/10th cm. Tick no. 131"/><path d="M498.89764,0v5.66929" id="1/10th cm. Tick no. 132"/><path d="M502.67717,0v5.66929" id="1/10th cm. Tick no. 133"/><path d="M506.45669,0v5.66929" id="1/10th cm. Tick no. 134"/><path d="M510.23622,0v5.66929" id="1/10th cm. Tick no. 135"/><path d="M514.01575,0v5.66929" id="1/10th cm. Tick no. 136"/><path d="M517.79528,0v5.66929" id="1/10th cm. Tick no. 137"/><path d="M521.5748,0v5.66929" id="1/10th cm. Tick no. 138"/><path d="M525.35433,0v5.66929" id="1/10th cm. Tick no. 139"/><path d="M532.91339,0v5.66929" id="1/10th cm. Tick no. 141"/><path d="M536.69291,0v5.66929" id="1/10th cm. Tick no. 142"/><path d="M540.47244,0v5.66929" id="1/10th cm. Tick no. 143"/><path d="M544.25197,0v5.66929" id="1/10th cm. Tick no. 144"/><path d="M548.0315,0v5.66929" id="1/10th cm. Tick no. 145"/><path d="M551.81102,0v5.66929" id="1/10th cm. Tick no. 146"/><path d="M555.59055,0v5.66929" id="1/10th cm. Tick no. 147"/><path d="M559.37008,0v5.66929" id="1/10th cm. Tick no. 148"/><path d="M563.14961,0v5.66929" id="1/10th cm. Tick no. 149"/><path d="M570.70866,0v5.66929" id="1/10th cm. Tick no. 151"/><path d="M574.48819,0v5.66929" id="1/10th cm. Tick no. 152"/><path d="M578.26772,0v5.66929" id="1/10th cm. Tick no. 153"/><path d="M582.04724,0v5.66929" id="1/10th cm. Tick no. 154"/><path d="M585.82677,0v5.66929" id="1/10th cm. Tick no. 155"/><path d="M589.6063,0v5.66929" id="1/10th cm. Tick no. 156"/><path d="M593.38583,0v5.66929" id="1/10th cm. Tick no. 157"/><path d="M597.16535,0v5.66929" id="1/10th cm. Tick no. 158"/><path d="M600.94488,0v5.66929" id="1/10th cm. Tick no. 159"/></g></svg>